<?xml version="1.0" encoding="UTF-8"?>
<svg id="Layer_2" data-name="Layer 2" xmlns="http://www.w3.org/2000/svg" viewBox="0 0 452.47 72.41">
  <defs>
    <style>
      .cls-1 {
        fill: #202020;
        opacity: .74;
        stroke: #d1d3d4;
        stroke-miterlimit: 10;
      }
    </style>
  </defs>
  <g id="Layer_1-2" data-name="Layer 1">
    <path class="cls-1" d="m438.58,70.21c6.46,0,11.7-5.24,11.7-11.7v-7.23c0-.94.76-1.69,1.69-1.69h0v-26.78h0c-.94,0-1.69-.76-1.69-1.69v-7.23c0-6.46-5.24-11.7-11.7-11.7h-7.23c-.94,0-1.69-.76-1.69-1.69h0s-4.46,0-4.46,0H22.81c0,.94-.76,1.69-1.69,1.69h-7.23C7.43,2.19,2.19,7.43,2.19,13.89v7.23c0,.94-.76,1.69-1.69,1.69h0v26.78h0c.94,0,1.69.76,1.69,1.69v7.23c0,6.46,5.24,11.7,11.7,11.7h7.23c.94,0,1.69.76,1.69,1.69h0s4.46,0,4.46,0h402.37c0-.94.76-1.69,1.69-1.69h7.23Z"/>
  </g>
</svg>