<?xml version="1.0" encoding="UTF-8"?>
<svg id="Layer_2" data-name="Layer 2" xmlns="http://www.w3.org/2000/svg" viewBox="0 0 1072.23 268.25">
  <defs>
    <style>
      .cls-1 {
        fill: #202020;
        stroke: #d3d3d3;
        stroke-miterlimit: 10;
        stroke-width: 8px;
      }
    </style>
  </defs>
  <g id="Layer_1-2" data-name="Layer 1">
    <path class="cls-1" d="m65.53,4h0c0,1.51-1.31,2.74-2.92,2.74h-27.85c-15.38,0-27.84,11.72-27.84,26.17v26.17c0,1.51-1.31,2.74-2.92,2.74h0v144.59h0c1.61,0,2.92,1.23,2.92,2.74v26.17c0,14.46,12.47,26.17,27.84,26.17h27.84c1.61,0,2.92,1.23,2.92,2.74h0s941.18,0,941.18,0h0c0-1.51,1.31-2.74,2.92-2.74h27.84c15.38,0,27.84-11.72,27.84-26.17v-26.17c0-1.51,1.31-2.74,2.92-2.74h0V61.83h0c-1.61,0-2.92-1.23-2.92-2.74v-26.17c0-14.46-12.47-26.17-27.84-26.17h-27.85c-1.61,0-2.92-1.23-2.92-2.74h0s-941.18,0-941.18,0Z"/>
  </g>
</svg>