<?xml version="1.0" encoding="UTF-8"?>
<svg id="Layer_2" data-name="Layer 2" xmlns="http://www.w3.org/2000/svg">
  <defs>
    <style>
      .cls-1 {
        fill: none;
        stroke: #d1d3d4;
        stroke-miterlimit: 10;
        stroke-width: 4px;
      }
    </style>
  </defs>
  <g id="Layer_1-2" data-name="Layer 1">
    <path class="cls-1" d="m1815.78,108.09c-.94-.92-1.52-2.21-1.52-3.63v-48.45c0-26.75-21.67-48.45-48.38-48.45h-48.38c-1.4,0-2.67-.57-3.59-1.48,0,0-.02-.02-.03-.03-2.15-2.18-4.98-3.56-8.04-3.56h-721.29l-436.46-.49-46.34.49H115.99s-5.89,1.38-8.05,3.56c-.92.93-2.19,1.51-3.6,1.51h-48.38C29.23,7.56,7.57,29.26,7.57,56.01v48.45c0,1.4-.57,2.67-1.49,3.59s-2.19,1.49-3.59,1.49h-.5v662.69c0,3.06,1.37,5.89,3.55,8.04.94.92,1.52,2.21,1.52,3.62v48.45c0,26.75,21.66,48.44,48.38,48.44h48.38c1.4,0,2.67.57,3.59,1.49,0,0,.02.02.03.03,2.15,2.18,4.98,3.56,8.04,3.56h1590.34c3.06,0,5.9-1.38,8.04-3.56.92-.94,2.2-1.52,3.61-1.52h48.38c26.72,0,48.38-21.68,48.38-48.45v-48.44c0-1.4.57-2.67,1.49-3.59.02-.02.04-.04.06-.06,2.17-2.13,3.52-4.96,3.52-8V116.11c0-3.05-1.37-5.88-3.54-8.03Z"/>
  </g>
</svg>